<svg width="60" height="60" viewBox="0 0 60 60" fill="none" xmlns="http://www.w3.org/2000/svg">
<path d="M60 35.1161V24.8839C60 23.1027 58.567 21.6696 56.7857 21.6696H38.3304V3.21429C38.3304 1.43304 36.8973 0 35.1161 0H24.8839C23.1027 0 21.6696 1.43304 21.6696 3.21429V21.6696H3.21429C1.43304 21.6696 0 23.1027 0 24.8839V35.1161C0 36.8973 1.43304 38.3304 3.21429 38.3304H21.6696V56.7857C21.6696 58.567 23.1027 60 24.8839 60H35.1161C36.8973 60 38.3304 58.567 38.3304 56.7857V38.3304H56.7857C58.567 38.3304 60 36.8973 60 35.1161Z" fill="white"/>
</svg>
